<!-- Generated by readme-aura https://github.com/collectioneur/readme-aura -->
<svg width="800" height="130" viewBox="0 0 800 130" xmlns="http://www.w3.org/2000/svg"><defs><clipPath id="satori_bc-id"><path x="0" y="0" width="800" height="130" d="M16,0 h768 a16,16 0 0 1 16,16 v98 a16,16 0 0 1 -16,16 h-768 a16,16 0 0 1 -16,-16 v-98 a16,16 0 0 1 16,-16"/></clipPath></defs><clipPath id="satori_cp-id"><path x="0" y="0" width="800" height="130" d="M16,0 h768 a16,16 0 0 1 16,16 v98 a16,16 0 0 1 -16,16 h-768 a16,16 0 0 1 -16,-16 v-98 a16,16 0 0 1 16,-16"/></clipPath><mask id="satori_om-id"><rect x="1" y="1" width="798" height="128" fill="#fff"/><path width="800" height="130" fill="none" stroke="#000" stroke-width="2" d="M4.686,4.686 A16,16 0 0 1 16,0 h768 a16,16 0 0 1 16,16 v98 a16,16 0 0 1 -16,16 h-768 a16,16 0 0 1 -16,-16 v-98 A16,16 0 0 1 4.686,4.686"/></mask><path x="0" y="0" width="800" height="130" fill="#1e1e2e" d="M16,0 h768 a16,16 0 0 1 16,16 v98 a16,16 0 0 1 -16,16 h-768 a16,16 0 0 1 -16,-16 v-98 a16,16 0 0 1 16,-16"/><path width="800" height="130" clip-path="url(#satori_bc-id)" fill="none" stroke="#313244" stroke-width="2" d="M4.686,4.686 A16,16 0 0 1 16,0 h768 a16,16 0 0 1 16,16 v98 a16,16 0 0 1 -16,16 h-768 a16,16 0 0 1 -16,-16 v-98 A16,16 0 0 1 4.686,4.686"/><defs><clipPath id="satori_bc-id-0" clip-path="url(#satori_cp-id)"><rect x="1" y="1" width="266" height="128"/></clipPath></defs><clipPath id="satori_cp-id-0" clip-path="url(#satori_cp-id)"><rect x="1" y="1" width="266" height="128"/></clipPath><mask id="satori_om-id-0"><rect x="1" y="1" width="265" height="128" fill="#fff" mask="url(#satori_om-id)"/><path width="266" height="128" fill="none" stroke="#000" stroke-width="2" d="M267,1 A0,0 0 0 1 267,1 v128 A0,0 0 0 1 267,129"/></mask><path width="266" height="128" clip-path="url(#satori_bc-id-0)" fill="none" stroke="#313244" stroke-width="2" d="M267,1 A0,0 0 0 1 267,1 v128 A0,0 0 0 1 267,129"/><mask id="satori_om-id-0-0"><rect x="54" y="127" width="159" height="2" fill="#fff" mask="url(#satori_om-id-0)"/></mask><g opacity="0.6"><path x="54" y="127" width="159" height="2" fill="#a6e3a1" d="M55,127 h157 a1,1 0 0 1 1,1 v0 a1,1 0 0 1 -1,1 h-157 a1,1 0 0 1 -1,-1 v0 a1,1 0 0 1 1,-1" clip-path="url(#satori_cp-id-0)" mask="url(#satori_om-id-0)"/></g><mask id="satori_om-id-0-1"><rect x="113" y="47" width="41" height="13" fill="#fff" mask="url(#satori_om-id-0)"/></mask><g mask="url(#satori_om-id-0)" clip-path="url(#satori_cp-id-0)"><path fill="#6c7086" d="M119.1 58L113.7 58L113.7 50.0L119.1 50.0L119.1 51.4L115.4 51.4L115.4 53.3L118.8 53.3L118.8 54.6L115.4 54.6L115.4 56.6L119.1 56.6L119.1 58ZM123.2 58L121.6 58L121.6 50.0L124.1 50.0L125.4 53.7Q125.5 53.9 125.6 54.3Q125.7 54.7 125.8 55.2L125.8 55.2Q125.9 55.7 126.0 56.1L126.0 56.1Q126.1 55.7 126.2 55.2L126.2 55.2Q126.3 54.8 126.4 54.3Q126.5 53.9 126.6 53.7L126.6 53.7L127.9 50.0L130.4 50.0L130.4 58L128.8 58L128.8 54.2Q128.8 54.0 128.8 53.6Q128.8 53.2 128.8 52.7Q128.8 52.3 128.8 51.8L128.8 51.8Q128.8 51.6 128.8 51.4L128.8 51.4Q128.8 51.6 128.7 51.9L128.7 51.9Q128.6 52.3 128.5 52.8Q128.3 53.2 128.2 53.6Q128.1 54.0 128.0 54.2L128.0 54.2L126.7 58L125.3 58L124.0 54.2Q123.9 54.0 123.8 53.6Q123.7 53.2 123.5 52.8Q123.4 52.4 123.3 51.9L123.3 51.9Q123.2 51.7 123.2 51.5L123.2 51.5Q123.2 51.6 123.2 51.8L123.2 51.8Q123.2 52.2 123.2 52.7Q123.2 53.2 123.2 53.6Q123.2 54.0 123.2 54.2L123.2 54.2L123.2 58ZM134.4 58L132.6 58L135.3 50.0L137.5 50.0L140.3 58L138.5 58L137.8 56.1L135.0 56.1L134.4 58ZM135.4 54.9L137.4 54.9L137.2 54.1Q136.9 53.4 136.7 52.5L136.7 52.5Q136.6 51.9 136.4 51.3L136.4 51.3Q136.2 51.9 136.1 52.5L136.1 52.5Q135.9 53.4 135.6 54.1L135.6 54.1L135.4 54.9ZM142.5 50.0L144.1 50.0L144.1 58L142.5 58L142.5 50.0ZM151.8 58L146.8 58L146.8 50.0L148.4 50.0L148.4 56.6L151.8 56.6L151.8 58Z "/></g><mask id="satori_om-id-0-2"><rect x="68" y="67" width="131" height="16" fill="#fff" mask="url(#satori_om-id-0)"/></mask><g mask="url(#satori_om-id-0)" clip-path="url(#satori_cp-id-0)"><path fill="#a6e3a1" d="M71.4 80.1L71.4 80.1Q70.6 80.1 69.9 79.7Q69.3 79.3 68.9 78.5Q68.5 77.6 68.5 76.5L68.5 76.5Q68.5 75.3 68.9 74.4Q69.3 73.6 70.0 73.2Q70.6 72.8 71.4 72.8L71.4 72.8Q72.0 72.8 72.4 73.0Q72.8 73.2 73.0 73.5Q73.3 73.8 73.4 74.1L73.4 74.1L73.5 74.1L73.5 70.5L75.4 70.5L75.4 80L73.5 80L73.5 78.9L73.4 78.9Q73.3 79.1 73.0 79.4Q72.8 79.7 72.4 79.9Q72.0 80.1 71.4 80.1ZM72.0 78.6L72.0 78.6Q72.5 78.6 72.8 78.3Q73.2 78.1 73.3 77.6Q73.5 77.1 73.5 76.5L73.5 76.5Q73.5 75.8 73.3 75.3Q73.2 74.9 72.8 74.6Q72.5 74.3 72.0 74.3L72.0 74.3Q71.5 74.3 71.2 74.6Q70.8 74.9 70.6 75.4Q70.5 75.8 70.5 76.5L70.5 76.5Q70.5 77.1 70.6 77.6Q70.8 78.0 71.2 78.3Q71.5 78.6 72.0 78.6ZM78.7 80L76.7 80L78.9 76.4L76.8 72.9L78.9 72.9L79.5 74.0Q79.8 74.6 80.1 75.1L80.1 75.1Q80.1 75.3 80.2 75.4L80.2 75.4Q80.3 75.3 80.3 75.1L80.3 75.1Q80.6 74.6 80.9 74.0L80.9 74.0L81.5 72.9L83.6 72.9L81.4 76.4L83.7 80L81.6 80L80.8 78.7Q80.5 78.1 80.3 77.6L80.3 77.6Q80.2 77.4 80.1 77.3L80.1 77.3Q80.1 77.4 80.0 77.6L80.0 77.6Q79.8 78.1 79.5 78.7L79.5 78.7L78.7 80ZM86.9 75.9L86.9 75.9L86.9 80L84.9 80L84.9 72.9L86.7 72.9L86.8 74.4Q87.0 73.7 87.5 73.3L87.5 73.3Q88.1 72.8 89.0 72.8L89.0 72.8Q89.7 72.8 90.3 73.1Q90.8 73.5 91.1 74.1Q91.4 74.7 91.4 75.5L91.4 75.5L91.4 80L89.5 80L89.5 75.8Q89.5 75.2 89.2 74.8Q88.8 74.4 88.2 74.4L88.2 74.4Q87.8 74.4 87.5 74.6Q87.2 74.8 87.0 75.1Q86.9 75.4 86.9 75.9ZM99.1 80L93.2 80L93.2 78.8L96.7 74.5L96.7 74.4L93.3 74.4L93.3 72.9L99.0 72.9L99.0 74.2L95.7 78.4L95.7 78.5L99.1 78.5L99.1 80ZM102.8 80L100.9 80L100.9 72.9L102.8 72.9L102.8 80ZM101.8 72.0L101.8 72.0Q101.4 72.0 101.1 71.7Q100.8 71.4 100.8 71.0L100.8 71.0Q100.8 70.6 101.1 70.3Q101.4 70.0 101.8 70.0L101.8 70.0Q102.3 70.0 102.6 70.3Q102.9 70.6 102.9 71.0L102.9 71.0Q102.9 71.4 102.6 71.7Q102.3 72.0 101.8 72.0ZM107.2 80.1L107.2 80.1Q106.4 80.1 105.7 79.7Q105.1 79.3 104.7 78.5Q104.3 77.6 104.3 76.5L104.3 76.5Q104.3 75.3 104.7 74.4Q105.1 73.6 105.8 73.2Q106.4 72.8 107.2 72.8L107.2 72.8Q107.8 72.8 108.2 73.0Q108.6 73.2 108.8 73.5Q109.1 73.8 109.2 74.1L109.2 74.1L109.3 74.1L109.3 70.5L111.2 70.5L111.2 80L109.3 80L109.3 78.9L109.2 78.9Q109.1 79.1 108.8 79.4Q108.6 79.7 108.2 79.9Q107.8 80.1 107.2 80.1ZM107.8 78.6L107.8 78.6Q108.3 78.6 108.6 78.3Q109.0 78.1 109.1 77.6Q109.3 77.1 109.3 76.5L109.3 76.5Q109.3 75.8 109.1 75.3Q109.0 74.9 108.6 74.6Q108.3 74.3 107.8 74.3L107.8 74.3Q107.3 74.3 106.9 74.6Q106.6 74.9 106.4 75.4Q106.3 75.8 106.3 76.5L106.3 76.5Q106.3 77.1 106.4 77.6Q106.6 78.0 107.0 78.3Q107.3 78.6 107.8 78.6ZM118.9 82.7L118.9 82.7Q117.5 82.7 116.3 82.3Q115.2 81.9 114.4 81.1Q113.6 80.4 113.2 79.3Q112.8 78.2 112.8 76.7L112.8 76.7Q112.8 75.4 113.2 74.2Q113.6 73.1 114.4 72.3Q115.1 71.5 116.3 71.0Q117.4 70.6 118.9 70.6L118.9 70.6Q120.3 70.6 121.4 71.0Q122.5 71.4 123.2 72.2Q124.0 72.9 124.4 73.9Q124.8 74.9 124.8 76.1L124.8 76.1Q124.8 76.9 124.7 77.5Q124.5 78.2 124.2 78.7Q123.9 79.3 123.4 79.5Q122.9 79.8 122.2 79.8L122.2 79.8Q121.8 79.8 121.4 79.7Q121.0 79.6 120.8 79.4Q120.5 79.1 120.5 78.8L120.5 78.8L120.4 78.8Q120.2 79.2 119.7 79.5Q119.3 79.8 118.5 79.8L118.5 79.8Q117.6 79.8 117.0 79.4Q116.4 79.0 116.1 78.3Q115.8 77.6 115.8 76.7L115.8 76.7Q115.8 75.7 116.1 75.0Q116.5 74.3 117.1 73.9Q117.7 73.5 118.5 73.5L118.5 73.5Q119.2 73.5 119.6 73.7Q120.1 73.9 120.2 74.3L120.2 74.3L120.3 74.3L120.3 73.6L121.6 73.6L121.6 77.9Q121.6 78.2 121.8 78.4Q121.9 78.6 122.2 78.6L122.2 78.6Q122.6 78.6 122.8 78.3Q123.1 78.1 123.2 77.5Q123.3 77.0 123.3 76.2L123.3 76.2Q123.3 75.3 123.0 74.5Q122.7 73.7 122.2 73.2Q121.7 72.6 120.9 72.4Q120.1 72.1 119.0 72.1L119.0 72.1Q117.9 72.1 117.0 72.4Q116.2 72.7 115.6 73.3Q115.0 73.9 114.7 74.7Q114.4 75.6 114.4 76.7L114.4 76.7Q114.4 77.8 114.7 78.6Q115.0 79.5 115.6 80.1Q116.2 80.7 117.1 81.0Q117.9 81.3 119.1 81.3L119.1 81.3Q119.6 81.3 120.1 81.2Q120.6 81.1 120.9 81.0Q121.3 80.9 121.6 80.8L121.6 80.8L122.1 82.1Q121.8 82.2 121.3 82.4Q120.8 82.5 120.2 82.6Q119.6 82.7 118.9 82.7ZM118.7 78.5L118.7 78.5Q119.2 78.5 119.5 78.3Q119.9 78.1 120.1 77.7Q120.2 77.2 120.2 76.6L120.2 76.6Q120.2 76.0 120.1 75.7Q119.9 75.3 119.5 75.1Q119.2 74.9 118.7 74.9L118.7 74.9Q118.2 74.9 117.9 75.2Q117.5 75.4 117.4 75.7Q117.2 76.1 117.2 76.6L117.2 76.6Q117.2 77.2 117.3 77.6Q117.5 78.0 117.8 78.2Q118.2 78.5 118.7 78.5ZM128.3 80L126.4 80L126.4 72.9L128.3 72.9L128.3 80ZM127.4 72.0L127.4 72.0Q126.9 72.0 126.6 71.7Q126.3 71.4 126.3 71.0L126.3 71.0Q126.3 70.6 126.6 70.3Q126.9 70.0 127.4 70.0L127.4 70.0Q127.8 70.0 128.1 70.3Q128.4 70.6 128.4 71.0L128.4 71.0Q128.4 71.4 128.1 71.7Q127.8 72.0 127.4 72.0ZM133.3 80.1L133.3 80.1Q132.2 80.1 131.5 79.7Q130.7 79.2 130.3 78.4Q129.8 77.6 129.8 76.5L129.8 76.5Q129.8 75.4 130.3 74.6Q130.7 73.7 131.5 73.3Q132.2 72.8 133.3 72.8L133.3 72.8Q133.9 72.8 134.5 73.0Q135.0 73.1 135.4 73.4Q135.8 73.8 136.1 74.2Q136.4 74.6 136.5 75.2L136.5 75.2L134.7 75.5Q134.6 75.2 134.5 75.0Q134.4 74.8 134.2 74.6Q134.1 74.5 133.8 74.4Q133.6 74.3 133.3 74.3L133.3 74.3Q132.8 74.3 132.5 74.6Q132.1 74.9 132.0 75.3Q131.8 75.8 131.8 76.5L131.8 76.5Q131.8 77.1 132.0 77.6Q132.1 78.1 132.5 78.4Q132.8 78.6 133.3 78.6L133.3 78.6Q133.6 78.6 133.8 78.6Q134.1 78.5 134.2 78.3Q134.4 78.1 134.5 77.9Q134.7 77.7 134.7 77.4L134.7 77.4L136.5 77.7Q136.4 78.3 136.1 78.7Q135.8 79.2 135.4 79.5Q135.0 79.8 134.5 80.0Q133.9 80.1 133.3 80.1ZM138.0 70.5L139.9 70.5L139.9 80L138.0 80L138.0 70.5ZM144.9 80.1L144.9 80.1Q143.8 80.1 143.0 79.7Q142.3 79.2 141.8 78.4Q141.4 77.6 141.4 76.5L141.4 76.5Q141.4 75.4 141.8 74.6Q142.3 73.7 143.0 73.3Q143.8 72.8 144.9 72.8L144.9 72.8Q146.0 72.8 146.7 73.3Q147.5 73.7 147.9 74.6Q148.4 75.4 148.4 76.5L148.4 76.5Q148.4 77.6 147.9 78.4Q147.5 79.2 146.7 79.7Q146.0 80.1 144.9 80.1ZM144.9 78.6L144.9 78.6Q145.4 78.6 145.7 78.4Q146.1 78.1 146.2 77.6Q146.4 77.1 146.4 76.5L146.4 76.5Q146.4 75.8 146.2 75.4Q146.1 74.9 145.7 74.6Q145.4 74.3 144.9 74.3L144.9 74.3Q144.4 74.3 144.0 74.6Q143.7 74.9 143.5 75.4Q143.4 75.8 143.4 76.5L143.4 76.5Q143.4 77.1 143.5 77.6Q143.7 78.1 144.0 78.4Q144.4 78.6 144.9 78.6ZM152.3 80.1L152.3 80.1Q151.6 80.1 151.0 79.8Q150.5 79.4 150.2 78.8Q149.9 78.2 149.9 77.4L149.9 77.4L149.9 72.9L151.8 72.9L151.8 77.1Q151.8 77.7 152.1 78.1Q152.5 78.5 153.1 78.5L153.1 78.5Q153.5 78.5 153.8 78.3Q154.1 78.1 154.3 77.8Q154.4 77.5 154.4 77.0L154.4 77.0L154.4 72.9L156.4 72.9L156.4 80L154.6 80L154.5 78.5Q154.3 79.2 153.8 79.6L153.8 79.6Q153.2 80.1 152.3 80.1ZM160.8 80.1L160.8 80.1Q160.0 80.1 159.3 79.7Q158.6 79.3 158.3 78.5Q157.9 77.6 157.9 76.5L157.9 76.5Q157.9 75.3 158.3 74.4Q158.7 73.6 159.3 73.2Q160.0 72.8 160.8 72.8L160.8 72.8Q161.4 72.8 161.8 73.0Q162.2 73.2 162.4 73.5Q162.7 73.8 162.8 74.1L162.8 74.1L162.8 74.1L162.8 70.5L164.7 70.5L164.7 80L162.9 80L162.9 78.9L162.8 78.9Q162.7 79.1 162.4 79.4Q162.1 79.7 161.7 79.9Q161.3 80.1 160.8 80.1ZM161.4 78.6L161.4 78.6Q161.8 78.6 162.2 78.3Q162.5 78.1 162.7 77.6Q162.9 77.1 162.9 76.5L162.9 76.5Q162.9 75.8 162.7 75.3Q162.5 74.9 162.2 74.6Q161.8 74.3 161.4 74.3L161.4 74.3Q160.9 74.3 160.5 74.6Q160.2 74.9 160.0 75.4Q159.8 75.8 159.8 76.5L159.8 76.5Q159.8 77.1 160.0 77.6Q160.2 78.0 160.5 78.3Q160.9 78.6 161.4 78.6ZM167.9 80.1L167.9 80.1Q167.5 80.1 167.1 79.8Q166.8 79.5 166.8 79.0L166.8 79.0Q166.8 78.6 167.1 78.3Q167.5 77.9 167.9 77.9L167.9 77.9Q168.4 77.9 168.7 78.3Q169.0 78.6 169.0 79.0L169.0 79.0Q169.0 79.5 168.7 79.8Q168.4 80.1 167.9 80.1ZM174.3 80.1L174.3 80.1Q173.2 80.1 172.4 79.7Q171.7 79.2 171.2 78.4Q170.8 77.6 170.8 76.5L170.8 76.5Q170.8 75.4 171.2 74.6Q171.7 73.7 172.4 73.3Q173.2 72.8 174.3 72.8L174.3 72.8Q174.9 72.8 175.4 73.0Q176.0 73.1 176.4 73.4Q176.8 73.8 177.1 74.2Q177.3 74.6 177.4 75.2L177.4 75.2L175.7 75.5Q175.6 75.2 175.5 75.0Q175.4 74.8 175.2 74.6Q175.0 74.5 174.8 74.4Q174.6 74.3 174.3 74.3L174.3 74.3Q173.8 74.3 173.5 74.6Q173.1 74.9 172.9 75.3Q172.8 75.8 172.8 76.5L172.8 76.5Q172.8 77.1 172.9 77.6Q173.1 78.1 173.5 78.4Q173.8 78.6 174.3 78.6L174.3 78.6Q174.6 78.6 174.8 78.6Q175.0 78.5 175.2 78.3Q175.4 78.1 175.5 77.9Q175.6 77.7 175.7 77.4L175.7 77.4L177.5 77.7Q177.4 78.3 177.1 78.7Q176.8 79.2 176.4 79.5Q176.0 79.8 175.5 80.0Q174.9 80.1 174.3 80.1ZM182.1 80.1L182.1 80.1Q181.1 80.1 180.3 79.7Q179.5 79.2 179.1 78.4Q178.7 77.6 178.7 76.5L178.7 76.5Q178.7 75.4 179.1 74.6Q179.5 73.7 180.3 73.3Q181.1 72.8 182.1 72.8L182.1 72.8Q183.2 72.8 184.0 73.3Q184.8 73.7 185.2 74.6Q185.6 75.4 185.6 76.5L185.6 76.5Q185.6 77.6 185.2 78.4Q184.8 79.2 184.0 79.7Q183.2 80.1 182.1 80.1ZM182.1 78.6L182.1 78.6Q182.6 78.6 183.0 78.4Q183.3 78.1 183.5 77.6Q183.7 77.1 183.7 76.5L183.7 76.5Q183.7 75.8 183.5 75.4Q183.3 74.9 183.0 74.6Q182.6 74.3 182.1 74.3L182.1 74.3Q181.6 74.3 181.3 74.6Q180.9 74.9 180.8 75.4Q180.6 75.8 180.6 76.5L180.6 76.5Q180.6 77.1 180.8 77.6Q180.9 78.1 181.3 78.4Q181.6 78.6 182.1 78.6ZM189.0 80L187.1 80L187.1 72.9L188.9 72.9L189.0 74.3Q189.1 73.9 189.3 73.6L189.3 73.6Q189.7 73.2 190.1 73.0Q190.5 72.8 191.0 72.8L191.0 72.8Q191.8 72.8 192.2 73.3L192.2 73.3Q192.6 73.7 192.8 74.4L192.8 74.4Q193.0 74.0 193.2 73.7L193.2 73.7Q193.6 73.2 194.1 73.0Q194.6 72.8 195.1 72.8L195.1 72.8Q195.8 72.8 196.3 73.1Q196.8 73.4 197.1 73.9Q197.4 74.4 197.4 75.2L197.4 75.2L197.4 80L195.5 80L195.5 75.6Q195.5 75.0 195.1 74.7Q194.8 74.4 194.3 74.4L194.3 74.4Q194.0 74.4 193.7 74.5Q193.5 74.7 193.3 75.0Q193.2 75.3 193.2 75.6L193.2 75.6L193.2 80L191.3 80L191.3 75.5Q191.3 75.0 191.0 74.7Q190.7 74.4 190.2 74.4L190.2 74.4Q189.9 74.4 189.6 74.5Q189.3 74.7 189.2 75.0Q189.0 75.3 189.0 75.7L189.0 75.7L189.0 80Z "/></g><defs><clipPath id="satori_bc-id-1" clip-path="url(#satori_cp-id)"><rect x="267" y="1" width="267" height="128"/></clipPath></defs><clipPath id="satori_cp-id-1" clip-path="url(#satori_cp-id)"><rect x="267" y="1" width="267" height="128"/></clipPath><mask id="satori_om-id-1"><rect x="267" y="1" width="266" height="128" fill="#fff" mask="url(#satori_om-id)"/><path width="267" height="128" fill="none" stroke="#000" stroke-width="2" d="M534,1 A0,0 0 0 1 534,1 v128 A0,0 0 0 1 534,129"/></mask><path width="267" height="128" clip-path="url(#satori_bc-id-1)" fill="none" stroke="#313244" stroke-width="2" d="M534,1 A0,0 0 0 1 534,1 v128 A0,0 0 0 1 534,129"/><mask id="satori_om-id-1-0"><rect x="320" y="127" width="160" height="2" fill="#fff" mask="url(#satori_om-id-1)"/></mask><g opacity="0.6"><path x="320" y="127" width="160" height="2" fill="#cba6f7" d="M321,127 h158 a1,1 0 0 1 1,1 v0 a1,1 0 0 1 -1,1 h-158 a1,1 0 0 1 -1,-1 v0 a1,1 0 0 1 1,-1" clip-path="url(#satori_cp-id-1)" mask="url(#satori_om-id-1)"/></g><mask id="satori_om-id-1-1"><rect x="360" y="47" width="79" height="13" fill="#fff" mask="url(#satori_om-id-1)"/></mask><g mask="url(#satori_om-id-1)" clip-path="url(#satori_cp-id-1)"><path fill="#6c7086" d="M360.7 50.0L362.4 50.0L362.4 58L360.7 58L360.7 50.0ZM366.7 58L365.0 58L365.0 50.0L366.8 50.0L369.4 54.0Q369.6 54.4 369.8 54.7Q370.0 55.1 370.2 55.5L370.2 55.5Q370.3 55.8 370.4 56.0L370.4 56.0Q370.4 55.8 370.3 55.6L370.3 55.6Q370.3 55.1 370.3 54.6Q370.3 54.2 370.3 53.8L370.3 53.8L370.3 50.0L371.9 50.0L371.9 58L370.1 58L367.8 54.3Q367.6 53.9 367.3 53.5Q367.1 53.1 366.9 52.7L366.9 52.7Q366.8 52.4 366.6 52.0L366.6 52.0Q366.6 52.3 366.6 52.7L366.6 52.7Q366.7 53.2 366.7 53.6Q366.7 54.0 366.7 54.3L366.7 54.3L366.7 58ZM377.5 58.1L377.5 58.1Q376.6 58.1 375.9 57.8Q375.1 57.5 374.7 56.9Q374.4 56.4 374.3 55.5L374.3 55.5L375.9 55.5Q376.0 55.9 376.2 56.2Q376.4 56.5 376.7 56.6Q377.1 56.7 377.5 56.7L377.5 56.7Q378.0 56.7 378.3 56.6Q378.6 56.5 378.8 56.2Q379.0 56.0 379.0 55.7L379.0 55.7Q379.0 55.4 378.8 55.3Q378.6 55.1 378.3 54.9Q378.0 54.8 377.6 54.7L377.6 54.7L376.7 54.5Q375.7 54.2 375.1 53.7Q374.5 53.2 374.5 52.3L374.5 52.3Q374.5 51.6 374.9 51.0Q375.3 50.5 376.0 50.2Q376.7 49.9 377.6 49.9L377.6 49.9Q378.4 49.9 379.1 50.2Q379.8 50.5 380.1 51.0Q380.5 51.6 380.5 52.3L380.5 52.3L378.9 52.3Q378.9 51.8 378.5 51.5Q378.1 51.3 377.5 51.3L377.5 51.3Q377.1 51.3 376.8 51.4Q376.5 51.5 376.4 51.7Q376.2 51.9 376.2 52.2L376.2 52.2Q376.2 52.5 376.4 52.7Q376.6 52.9 376.9 53.0Q377.2 53.1 377.5 53.2L377.5 53.2L378.2 53.4Q378.7 53.5 379.2 53.7Q379.6 53.9 379.9 54.2Q380.3 54.4 380.4 54.8Q380.6 55.2 380.6 55.7L380.6 55.7Q380.6 56.4 380.3 57.0Q379.9 57.5 379.2 57.8Q378.5 58.1 377.5 58.1ZM385.1 51.4L382.7 51.4L382.7 50.0L389.2 50.0L389.2 51.4L386.8 51.4L386.8 58L385.1 58L385.1 51.4ZM392.9 58L391.1 58L393.8 50.0L396.0 50.0L398.8 58L396.9 58L396.3 56.1L393.5 56.1L392.9 58ZM393.9 54.9L395.9 54.9L395.7 54.1Q395.4 53.4 395.2 52.5L395.2 52.5Q395.0 51.9 394.9 51.3L394.9 51.3Q394.7 51.9 394.6 52.5L394.6 52.5Q394.3 53.4 394.1 54.1L394.1 54.1L393.9 54.9ZM404.5 58.1L404.5 58.1Q403.4 58.1 402.5 57.6Q401.7 57.1 401.2 56.2Q400.7 55.3 400.7 54.0L400.7 54.0Q400.7 52.7 401.2 51.8Q401.7 50.9 402.6 50.4Q403.4 49.9 404.5 49.9L404.5 49.9Q405.1 49.9 405.7 50.1Q406.3 50.3 406.8 50.6Q407.2 51.0 407.5 51.5Q407.8 52.0 407.9 52.6L407.9 52.6L406.2 52.6Q406.1 52.3 406.0 52.1Q405.8 51.8 405.6 51.7Q405.4 51.5 405.1 51.4Q404.8 51.3 404.5 51.3L404.5 51.3Q403.9 51.3 403.4 51.7Q402.9 52.0 402.7 52.6Q402.4 53.1 402.4 54.0Q402.4 54.8 402.7 55.4Q402.9 56.0 403.4 56.3Q403.9 56.7 404.5 56.7L404.5 56.7Q405.1 56.7 405.5 56.4Q405.9 56.2 406.1 55.8L406.1 55.8Q406.4 55.5 406.4 55.0L406.4 55.0L404.6 55.0L404.6 53.7L408.0 53.7L408.0 54.7Q408.0 55.8 407.5 56.5Q407.1 57.3 406.3 57.7Q405.5 58.1 404.5 58.1ZM412.0 58L410.4 58L410.4 50.0L413.5 50.0Q414.4 50.0 415.1 50.3Q415.7 50.6 416.1 51.2Q416.4 51.8 416.4 52.6Q416.4 53.4 416.1 54.0Q415.7 54.5 415.1 54.8L415.1 54.8Q415.0 54.9 415.0 54.9L415.0 54.9L416.7 58L414.9 58L413.3 55.1L412.0 55.1L412.0 58ZM412.0 51.4L412.0 53.8L413.2 53.8Q413.7 53.8 414.1 53.7Q414.4 53.5 414.5 53.3Q414.7 53.0 414.7 52.6L414.7 52.6Q414.7 52.2 414.5 51.9Q414.4 51.6 414.1 51.5Q413.7 51.4 413.2 51.4L413.2 51.4L412.0 51.4ZM420.2 58L418.4 58L421.1 50.0L423.3 50.0L426.1 58L424.2 58L423.6 56.1L420.8 56.1L420.2 58ZM421.2 54.9L423.2 54.9L423.0 54.1Q422.7 53.4 422.5 52.5L422.5 52.5Q422.3 51.9 422.2 51.3L422.2 51.3Q422.0 51.9 421.9 52.5L421.9 52.5Q421.6 53.4 421.4 54.1L421.4 54.1L421.2 54.9ZM429.9 58L428.2 58L428.2 50.0L430.8 50.0L432.1 53.7Q432.1 53.9 432.2 54.3Q432.4 54.7 432.5 55.2L432.5 55.2Q432.6 55.7 432.7 56.1L432.7 56.1Q432.7 55.7 432.8 55.2L432.8 55.2Q433.0 54.8 433.1 54.3Q433.2 53.9 433.2 53.7L433.2 53.7L434.5 50.0L437.1 50.0L437.1 58L435.4 58L435.4 54.2Q435.4 54.0 435.4 53.6Q435.4 53.2 435.4 52.7Q435.4 52.3 435.5 51.8L435.5 51.8Q435.5 51.6 435.5 51.4L435.5 51.4Q435.4 51.6 435.3 51.9L435.3 51.9Q435.2 52.3 435.1 52.8Q435.0 53.2 434.9 53.6Q434.7 54.0 434.7 54.2L434.7 54.2L433.3 58L432.0 58L430.6 54.2Q430.5 54.0 430.4 53.6Q430.3 53.2 430.2 52.8Q430.1 52.4 429.9 51.9L429.9 51.9Q429.9 51.7 429.8 51.5L429.8 51.5Q429.8 51.6 429.8 51.8L429.8 51.8Q429.8 52.2 429.8 52.7Q429.9 53.2 429.9 53.6Q429.9 54.0 429.9 54.2L429.9 54.2L429.9 58Z "/></g><mask id="satori_om-id-1-2"><rect x="371" y="67" width="57" height="16" fill="#fff" mask="url(#satori_om-id-1)"/></mask><g mask="url(#satori_om-id-1)" clip-path="url(#satori_cp-id-1)"><path fill="#cba6f7" d="M374.4 80.1L374.4 80.1Q373.6 80.1 372.9 79.7Q372.3 79.3 371.9 78.5Q371.5 77.6 371.5 76.5L371.5 76.5Q371.5 75.3 371.9 74.4Q372.3 73.6 373.0 73.2Q373.6 72.8 374.4 72.8L374.4 72.8Q375.0 72.8 375.4 73.0Q375.8 73.2 376.0 73.5Q376.3 73.8 376.4 74.1L376.4 74.1L376.5 74.1L376.5 70.5L378.4 70.5L378.4 80L376.5 80L376.5 78.9L376.4 78.9Q376.3 79.1 376.0 79.4Q375.8 79.7 375.4 79.9Q375.0 80.1 374.4 80.1ZM375.0 78.6L375.0 78.6Q375.5 78.6 375.8 78.3Q376.2 78.1 376.3 77.6Q376.5 77.1 376.5 76.5L376.5 76.5Q376.5 75.8 376.3 75.3Q376.2 74.9 375.8 74.6Q375.5 74.3 375.0 74.3L375.0 74.3Q374.5 74.3 374.2 74.6Q373.8 74.9 373.6 75.4Q373.5 75.8 373.5 76.5L373.5 76.5Q373.5 77.1 373.6 77.6Q373.8 78.0 374.2 78.3Q374.5 78.6 375.0 78.6ZM381.7 80L379.7 80L381.9 76.4L379.8 72.9L381.9 72.9L382.5 74.0Q382.8 74.6 383.1 75.1L383.1 75.1Q383.1 75.3 383.2 75.4L383.2 75.4Q383.3 75.3 383.3 75.1L383.3 75.1Q383.6 74.6 383.9 74.0L383.9 74.0L384.5 72.9L386.6 72.9L384.4 76.4L386.7 80L384.6 80L383.8 78.7Q383.5 78.1 383.3 77.6L383.3 77.6Q383.2 77.4 383.1 77.3L383.1 77.3Q383.1 77.4 383.0 77.6L383.0 77.6Q382.8 78.1 382.5 78.7L382.5 78.7L381.7 80ZM389.9 75.9L389.9 75.9L389.9 80L387.9 80L387.9 72.9L389.7 72.9L389.8 74.4Q390.0 73.7 390.5 73.3L390.5 73.3Q391.1 72.8 392.0 72.8L392.0 72.8Q392.7 72.8 393.3 73.1Q393.8 73.5 394.1 74.1Q394.4 74.7 394.4 75.5L394.4 75.5L394.4 80L392.5 80L392.5 75.8Q392.5 75.2 392.2 74.8Q391.8 74.4 391.2 74.4L391.2 74.4Q390.8 74.4 390.5 74.6Q390.2 74.8 390.0 75.1Q389.9 75.4 389.9 75.9ZM402.1 80L396.2 80L396.2 78.8L399.7 74.5L399.7 74.4L396.3 74.4L396.3 72.9L402.0 72.9L402.0 74.2L398.7 78.4L398.7 78.5L402.1 78.5L402.1 80ZM405.2 80.1L405.2 80.1Q404.8 80.1 404.5 79.8Q404.1 79.5 404.1 79.0L404.1 79.0Q404.1 78.6 404.5 78.3Q404.8 77.9 405.2 77.9L405.2 77.9Q405.7 77.9 406.0 78.3Q406.3 78.6 406.3 79.0L406.3 79.0Q406.3 79.5 406.0 79.8Q405.7 80.1 405.2 80.1ZM410.3 80L408.4 80L408.4 72.9L410.3 72.9L410.3 80ZM409.4 72.0L409.4 72.0Q408.9 72.0 408.6 71.7Q408.3 71.4 408.3 71.0L408.3 71.0Q408.3 70.6 408.6 70.3Q408.9 70.0 409.4 70.0L409.4 70.0Q409.8 70.0 410.1 70.3Q410.4 70.6 410.4 71.0L410.4 71.0Q410.4 71.4 410.1 71.7Q409.8 72.0 409.4 72.0ZM414.7 80.1L414.7 80.1Q413.9 80.1 413.3 79.7Q412.6 79.3 412.2 78.5Q411.9 77.6 411.9 76.5L411.9 76.5Q411.9 75.3 412.2 74.4Q412.6 73.6 413.3 73.2Q413.9 72.8 414.7 72.8L414.7 72.8Q415.3 72.8 415.7 73.0Q416.1 73.2 416.4 73.5Q416.6 73.8 416.8 74.1L416.8 74.1L416.8 74.1L416.8 70.5L418.7 70.5L418.7 80L416.8 80L416.8 78.9L416.8 78.9Q416.6 79.1 416.4 79.4Q416.1 79.7 415.7 79.9Q415.3 80.1 414.7 80.1ZM415.3 78.6L415.3 78.6Q415.8 78.6 416.2 78.3Q416.5 78.1 416.7 77.6Q416.9 77.1 416.9 76.5L416.9 76.5Q416.9 75.8 416.7 75.3Q416.5 74.9 416.2 74.6Q415.8 74.3 415.3 74.3L415.3 74.3Q414.8 74.3 414.5 74.6Q414.2 74.9 414.0 75.4Q413.8 75.8 413.8 76.5L413.8 76.5Q413.8 77.1 414.0 77.6Q414.2 78.0 414.5 78.3Q414.8 78.6 415.3 78.6ZM422.0 80L420.0 80L422.3 76.4L420.1 72.9L422.2 72.9L422.8 74.0Q423.1 74.6 423.4 75.1L423.4 75.1Q423.5 75.3 423.5 75.4L423.5 75.4Q423.6 75.3 423.7 75.1L423.7 75.1Q423.9 74.6 424.2 74.0L424.2 74.0L424.9 72.9L426.9 72.9L424.7 76.4L427.0 80L425.0 80L424.2 78.7Q423.9 78.1 423.6 77.6L423.6 77.6Q423.5 77.4 423.5 77.3L423.5 77.3Q423.4 77.4 423.4 77.6L423.4 77.6Q423.1 78.1 422.8 78.7L422.8 78.7L422.0 80Z "/></g><clipPath id="satori_cp-id-2" clip-path="url(#satori_cp-id)"><rect x="534" y="1" width="265" height="128"/></clipPath><mask id="satori_om-id-2"><rect x="534" y="1" width="265" height="128" fill="#fff" mask="url(#satori_om-id)"/></mask><mask id="satori_om-id-2-0"><rect x="587" y="127" width="159" height="2" fill="#fff" mask="url(#satori_om-id-2)"/></mask><g opacity="0.6"><path x="587" y="127" width="159" height="2" fill="#89b4fa" d="M588,127 h157 a1,1 0 0 1 1,1 v0 a1,1 0 0 1 -1,1 h-157 a1,1 0 0 1 -1,-1 v0 a1,1 0 0 1 1,-1" clip-path="url(#satori_cp-id-2)" mask="url(#satori_om-id-2)"/></g><mask id="satori_om-id-2-1"><rect x="662" y="47" width="10" height="13" fill="#fff" mask="url(#satori_om-id-2)"/></mask><g mask="url(#satori_om-id-2)" clip-path="url(#satori_cp-id-2)"><path fill="#6c7086" d="M664.2 58L662.3 58L665.1 53.9L662.5 50.0L664.4 50.0L665.3 51.3Q665.6 51.7 665.7 52.0Q665.9 52.3 666.0 52.6L666.0 52.6Q666.0 52.7 666.1 52.8L666.1 52.8Q666.1 52.7 666.2 52.6L666.2 52.6Q666.3 52.3 666.5 52.0Q666.6 51.7 666.9 51.3L666.9 51.3L667.8 50.0L669.6 50.0L667.0 53.9L669.8 58L667.9 58L666.8 56.3Q666.6 56.0 666.4 55.7Q666.3 55.5 666.2 55.3L666.2 55.3Q666.1 55.2 666.1 55.1L666.1 55.1Q666.0 55.2 665.9 55.3L665.9 55.3Q665.8 55.5 665.7 55.7Q665.5 56.0 665.3 56.3L665.3 56.3L664.2 58Z "/></g><mask id="satori_om-id-2-2"><rect x="624" y="67" width="85" height="16" fill="#fff" mask="url(#satori_om-id-2)"/></mask><g mask="url(#satori_om-id-2)" clip-path="url(#satori_cp-id-2)"><path fill="#89b4fa" d="M630.7 82.7L630.7 82.7Q629.3 82.7 628.1 82.3Q627.0 81.9 626.2 81.1Q625.4 80.4 625.0 79.3Q624.6 78.2 624.6 76.7L624.6 76.7Q624.6 75.4 625.0 74.2Q625.4 73.1 626.2 72.3Q626.9 71.5 628.1 71.0Q629.2 70.6 630.7 70.6L630.7 70.6Q632.1 70.6 633.2 71.0Q634.3 71.4 635.0 72.2Q635.8 72.9 636.2 73.9Q636.6 74.9 636.6 76.1L636.6 76.1Q636.6 76.9 636.5 77.5Q636.3 78.2 636.0 78.7Q635.7 79.3 635.2 79.5Q634.7 79.8 634.0 79.8L634.0 79.8Q633.6 79.8 633.2 79.7Q632.8 79.6 632.6 79.4Q632.3 79.1 632.3 78.8L632.3 78.8L632.2 78.8Q632.1 79.2 631.6 79.5Q631.1 79.8 630.3 79.8L630.3 79.8Q629.4 79.8 628.8 79.4Q628.2 79.0 627.9 78.3Q627.6 77.6 627.6 76.7L627.6 76.7Q627.6 75.7 627.9 75.0Q628.3 74.3 628.9 73.9Q629.5 73.5 630.3 73.5L630.3 73.5Q631.0 73.5 631.4 73.7Q631.9 73.9 632.0 74.3L632.0 74.3L632.1 74.3L632.1 73.6L633.4 73.6L633.4 77.9Q633.4 78.2 633.6 78.4Q633.7 78.6 634.0 78.6L634.0 78.6Q634.4 78.6 634.6 78.3Q634.9 78.1 635.0 77.5Q635.1 77.0 635.1 76.2L635.1 76.2Q635.1 75.3 634.8 74.5Q634.5 73.7 634.0 73.2Q633.5 72.6 632.7 72.4Q631.9 72.1 630.8 72.1L630.8 72.1Q629.7 72.1 628.8 72.4Q628.0 72.7 627.4 73.3Q626.8 73.9 626.5 74.7Q626.2 75.6 626.2 76.7L626.2 76.7Q626.2 77.8 626.5 78.6Q626.8 79.5 627.4 80.1Q628.0 80.7 628.9 81.0Q629.7 81.3 630.9 81.3L630.9 81.3Q631.4 81.3 631.9 81.2Q632.4 81.1 632.8 81.0Q633.1 80.9 633.4 80.8L633.4 80.8L633.9 82.1Q633.6 82.2 633.1 82.4Q632.6 82.5 632.0 82.6Q631.4 82.7 630.7 82.7ZM630.5 78.5L630.5 78.5Q631.0 78.5 631.4 78.3Q631.7 78.1 631.9 77.7Q632.0 77.2 632.0 76.6L632.0 76.6Q632.0 76.0 631.9 75.7Q631.7 75.3 631.3 75.1Q631.0 74.9 630.5 74.9L630.5 74.9Q630.0 74.9 629.7 75.2Q629.3 75.4 629.2 75.7Q629.0 76.1 629.0 76.6L629.0 76.6Q629.0 77.2 629.2 77.6Q629.3 78.0 629.6 78.2Q630.0 78.5 630.5 78.5ZM640.8 80.1L640.8 80.1Q640.0 80.1 639.3 79.7Q638.7 79.3 638.3 78.5Q637.9 77.6 637.9 76.5L637.9 76.5Q637.9 75.3 638.3 74.4Q638.7 73.6 639.4 73.2Q640.0 72.8 640.8 72.8L640.8 72.8Q641.4 72.8 641.8 73.0Q642.2 73.2 642.5 73.5Q642.7 73.8 642.8 74.1L642.8 74.1L642.9 74.1L642.9 70.5L644.8 70.5L644.8 80L642.9 80L642.9 78.9L642.8 78.9Q642.7 79.1 642.4 79.4Q642.2 79.7 641.8 79.9Q641.4 80.1 640.8 80.1ZM641.4 78.6L641.4 78.6Q641.9 78.6 642.2 78.3Q642.6 78.1 642.7 77.6Q642.9 77.1 642.9 76.5L642.9 76.5Q642.9 75.8 642.8 75.3Q642.6 74.9 642.2 74.6Q641.9 74.3 641.4 74.3L641.4 74.3Q640.9 74.3 640.6 74.6Q640.2 74.9 640.1 75.4Q639.9 75.8 639.9 76.5L639.9 76.5Q639.9 77.1 640.1 77.6Q640.2 78.0 640.6 78.3Q640.9 78.6 641.4 78.6ZM648.1 80L646.1 80L648.4 76.4L646.2 72.9L648.3 72.9L648.9 74.0Q649.2 74.6 649.5 75.1L649.5 75.1Q649.5 75.3 649.6 75.4L649.6 75.4Q649.7 75.3 649.7 75.1L649.7 75.1Q650.0 74.6 650.3 74.0L650.3 74.0L651.0 72.9L653.0 72.9L650.8 76.4L653.1 80L651.0 80L650.2 78.7Q649.9 78.1 649.7 77.6L649.7 77.6Q649.6 77.4 649.5 77.3L649.5 77.3Q649.5 77.4 649.4 77.6L649.4 77.6Q649.2 78.1 648.9 78.7L648.9 78.7L648.1 80ZM656.3 75.9L656.3 75.9L656.3 80L654.4 80L654.4 72.9L656.2 72.9L656.2 74.4Q656.5 73.7 656.9 73.3L656.9 73.3Q657.5 72.8 658.4 72.8L658.4 72.8Q659.1 72.8 659.7 73.1Q660.2 73.5 660.5 74.1Q660.8 74.7 660.8 75.5L660.8 75.5L660.8 80L658.9 80L658.9 75.8Q658.9 75.2 658.6 74.8Q658.2 74.4 657.6 74.4L657.6 74.4Q657.2 74.4 656.9 74.6Q656.6 74.8 656.4 75.1Q656.3 75.4 656.3 75.9ZM668.5 80L662.6 80L662.6 78.8L666.1 74.5L666.1 74.4L662.7 74.4L662.7 72.9L668.4 72.9L668.4 74.2L665.1 78.4L665.1 78.5L668.5 78.5L668.5 80ZM669.5 80L675.7 80L675.7 81.5L669.5 81.5L669.5 80ZM679.9 80.1L679.9 80.1Q678.8 80.1 678.0 79.7Q677.2 79.2 676.8 78.4Q676.4 77.6 676.4 76.5L676.4 76.5Q676.4 75.4 676.8 74.6Q677.2 73.7 678.0 73.3Q678.8 72.8 679.9 72.8L679.9 72.8Q680.5 72.8 681.0 73.0Q681.6 73.1 682.0 73.4Q682.4 73.8 682.6 74.2Q682.9 74.6 683.0 75.2L683.0 75.2L681.2 75.5Q681.2 75.2 681.1 75.0Q680.9 74.8 680.8 74.6Q680.6 74.5 680.4 74.4Q680.2 74.3 679.9 74.3L679.9 74.3Q679.4 74.3 679.0 74.6Q678.7 74.9 678.5 75.3Q678.3 75.8 678.3 76.5L678.3 76.5Q678.3 77.1 678.5 77.6Q678.7 78.1 679.0 78.4Q679.4 78.6 679.9 78.6L679.9 78.6Q680.2 78.6 680.4 78.6Q680.6 78.5 680.8 78.3Q681.0 78.1 681.1 77.9Q681.2 77.7 681.3 77.4L681.3 77.4L683.0 77.7Q682.9 78.3 682.7 78.7Q682.4 79.2 682.0 79.5Q681.6 79.8 681.0 80.0Q680.5 80.1 679.9 80.1ZM687.7 80.1L687.7 80.1Q686.6 80.1 685.9 79.7Q685.1 79.2 684.7 78.4Q684.2 77.6 684.2 76.5L684.2 76.5Q684.2 75.4 684.7 74.6Q685.1 73.7 685.9 73.3Q686.6 72.8 687.7 72.8L687.7 72.8Q688.8 72.8 689.6 73.3Q690.3 73.7 690.8 74.6Q691.2 75.4 691.2 76.5L691.2 76.5Q691.2 77.6 690.8 78.4Q690.3 79.2 689.6 79.7Q688.8 80.1 687.7 80.1ZM687.7 78.6L687.7 78.6Q688.2 78.6 688.6 78.4Q688.9 78.1 689.1 77.6Q689.2 77.1 689.2 76.5L689.2 76.5Q689.2 75.8 689.1 75.4Q688.9 74.9 688.6 74.6Q688.2 74.3 687.7 74.3L687.7 74.3Q687.2 74.3 686.9 74.6Q686.5 74.9 686.4 75.4Q686.2 75.8 686.2 76.5L686.2 76.5Q686.2 77.1 686.4 77.6Q686.5 78.1 686.9 78.4Q687.2 78.6 687.7 78.6ZM695.3 80.1L695.3 80.1Q694.5 80.1 693.8 79.7Q693.2 79.3 692.8 78.5Q692.4 77.6 692.4 76.5L692.4 76.5Q692.4 75.3 692.8 74.4Q693.2 73.6 693.9 73.2Q694.5 72.8 695.3 72.8L695.3 72.8Q695.9 72.8 696.3 73.0Q696.7 73.2 696.9 73.5Q697.2 73.8 697.3 74.1L697.3 74.1L697.4 74.1L697.4 70.5L699.3 70.5L699.3 80L697.4 80L697.4 78.9L697.3 78.9Q697.2 79.1 696.9 79.4Q696.7 79.7 696.3 79.9Q695.9 80.1 695.3 80.1ZM695.9 78.6L695.9 78.6Q696.4 78.6 696.7 78.3Q697.1 78.1 697.2 77.6Q697.4 77.1 697.4 76.5L697.4 76.5Q697.4 75.8 697.2 75.3Q697.1 74.9 696.7 74.6Q696.4 74.3 695.9 74.3L695.9 74.3Q695.4 74.3 695.0 74.6Q694.7 74.9 694.5 75.4Q694.4 75.8 694.4 76.5L694.4 76.5Q694.4 77.1 694.5 77.6Q694.7 78.0 695.1 78.3Q695.4 78.6 695.9 78.6ZM704.3 80.1L704.3 80.1Q703.2 80.1 702.4 79.7Q701.6 79.3 701.2 78.4Q700.8 77.6 700.8 76.5L700.8 76.5Q700.8 75.4 701.2 74.6Q701.6 73.7 702.4 73.3Q703.2 72.8 704.2 72.8L704.2 72.8Q704.9 72.8 705.5 73.0Q706.1 73.3 706.6 73.7Q707.0 74.2 707.3 74.8Q707.5 75.5 707.5 76.4L707.5 76.4L707.5 76.9L702.7 76.9Q702.7 77.5 702.9 77.9L702.9 77.9Q703.1 78.3 703.5 78.5Q703.8 78.7 704.3 78.7L704.3 78.7Q704.7 78.7 704.9 78.6Q705.2 78.5 705.4 78.3Q705.6 78.1 705.7 77.9L705.7 77.9L707.4 78.2Q707.3 78.8 706.8 79.2Q706.4 79.7 705.8 79.9Q705.1 80.1 704.3 80.1ZM702.7 75.8L702.7 75.8L705.7 75.8Q705.7 75.4 705.6 75.1L705.6 75.1Q705.4 74.7 705.1 74.5Q704.7 74.2 704.2 74.2L704.2 74.2Q703.7 74.2 703.4 74.5Q703.0 74.7 702.9 75.1L702.9 75.1Q702.7 75.4 702.7 75.8Z "/></g></svg>